<svg 
  class="customizable-svg" 
  width="80" 
  height="80" 
  viewBox="0 0 80 80" 
  fill="none" 
  xmlns="http://www.w3.org/2000/svg"
>
  <path 
    d="M49.9999 56.6667V60C49.9999 65.5228 45.5228 70 39.9999 70C34.4771 70 29.9999 65.5228 29.9999 60V56.6667M49.9999 56.6667H29.9999M49.9999 56.6667H61.9683C63.2433 56.6667 63.8839 56.6667 64.4002 56.4925C65.3864 56.1599 66.1581 55.3855 66.4908 54.3993C66.6657 53.8809 66.6657 53.2383 66.6657 51.9531C66.6657 51.3908 66.665 51.1096 66.621 50.8415C66.5379 50.3348 66.3412 49.8545 66.0418 49.4374C65.8835 49.217 65.6824 49.0159 65.286 48.6194L63.9875 47.321C63.5686 46.902 63.3333 46.3338 63.3333 45.7414V33.3333C63.3333 20.4467 52.8866 9.99997 39.9999 10C27.1133 10 16.6666 20.4467 16.6666 33.3333V45.7414C16.6666 46.3339 16.4307 46.902 16.0118 47.321L14.7135 48.6193C14.3158 49.017 14.1167 49.2168 13.9583 49.4375C13.6588 49.8546 13.4604 50.3348 13.3773 50.8415C13.3333 51.1096 13.3333 51.3908 13.3333 51.9532C13.3333 53.2384 13.3333 53.8808 13.5081 54.3991C13.8408 55.3854 14.6159 56.1599 15.6021 56.4925C16.1185 56.6667 16.7566 56.6667 18.0318 56.6667H29.9999" 
    stroke="currentColor" 
    stroke-width="var(--stroke-width, 4)" 
    stroke-linecap="round" 
    stroke-linejoin="round"
  />
</svg>
