<svg 
  class="customizable-svg" 
  width="50" 
  height="50" 
  viewBox="0 0 50 50" 
  fill="none" 
  xmlns="http://www.w3.org/2000/svg"
>
  <path 
    d="M10.4167 40.6254V12.9171C10.4167 10.5835 10.4167 9.41588 10.8709 8.52458C11.2704 7.74057 11.9073 7.10361 12.6913 6.70414C13.5826 6.25 14.7503 6.25 17.0838 6.25H36.2505C37.4173 6.25 38.0015 6.25 38.4471 6.47707C38.8391 6.67681 39.1558 6.99528 39.3555 7.38729C39.5826 7.83294 39.5834 8.41676 39.5834 9.58354V34.1669C39.5834 35.3336 39.5826 35.9162 39.3555 36.3619C39.1558 36.7539 38.8395 37.0734 38.4475 37.2732C38.0023 37.5 37.4188 37.5 36.2543 37.5H15.1042C12.5154 37.5 10.4167 39.5987 10.4167 42.1875C10.4167 43.0504 11.1163 43.75 11.9792 43.75H34.171C35.3355 43.75 35.919 43.75 36.3642 43.5232C36.7562 43.3234 37.0725 43.0041 37.2722 42.6121C37.4993 42.1664 37.5001 41.5834 37.5001 40.4167V37.5" 
    stroke="currentColor" 
    stroke-width="var(--stroke-width, 4)" 
    stroke-linecap="round" 
    stroke-linejoin="round"
  />
</svg>