<svg width="80" height="80" viewBox="0 0 80 80" fill="none" xmlns="http://www.w3.org/2000/svg">
  <path d="M13.3333 26.6667H66.6666M13.3333 26.6667V56.0007C13.3333 59.7344 13.3333 61.6002 14.0599 63.0263C14.699 64.2807 15.7182 65.3016 16.9726 65.9408C18.3973 66.6667 20.2632 66.6667 23.9896 66.6667H56.0102C59.7366 66.6667 61.5999 66.6667 63.0246 65.9408C64.279 65.3016 65.3015 64.2807 65.9407 63.0263C66.6666 61.6016 66.6666 59.7383 66.6666 56.0119V26.6667M13.3333 26.6667V24.0007C13.3333 20.267 13.3333 18.3988 14.0599 16.9727C14.699 15.7183 15.7182 14.6991 16.9726 14.06C18.3987 13.3334 20.2669 13.3334 24.0006 13.3334H26.6666M66.6666 26.6667V23.9897C66.6666 20.2633 66.6666 18.3974 65.9407 16.9727C65.3015 15.7183 64.279 14.6991 63.0246 14.06C61.5985 13.3334 59.7343 13.3334 56.0006 13.3334H53.3333M26.6666 13.3334H53.3333M26.6666 13.3334V6.66669M53.3333 13.3334V6.66669M39.1666 53.3333C39.6268 53.3333 39.9999 52.9603 39.9999 52.5V40.8334C39.9999 40.3731 39.6268 40 39.1666 40H27.4999C27.0397 40 26.6666 40.3731 26.6666 40.8334V52.5C26.6666 52.9603 27.0397 53.3333 27.4999 53.3333H39.1666Z" 
    stroke="currentColor" 
    stroke-width="var(--stroke-width, 4px)" 
    stroke-linecap="round" 
    stroke-linejoin="round"/>
</svg>
