<svg width="50" height="50" viewBox="0 0 50 50" fill="none" xmlns="http://www.w3.org/2000/svg">
<path d="M8.33325 16.6666H41.6666M8.33325 16.6666V35.0004C8.33325 37.3339 8.33325 38.5001 8.78739 39.3914C9.18686 40.1754 9.82382 40.8135 10.6078 41.2129C11.4983 41.6666 12.6645 41.6666 14.9935 41.6666H35.0064C37.3353 41.6666 38.4999 41.6666 39.3903 41.2129C40.1743 40.8135 40.8134 40.1754 41.2129 39.3914C41.6666 38.501 41.6666 37.3364 41.6666 35.0074V16.6666M8.33325 16.6666V15.0004C8.33325 12.6668 8.33325 11.4992 8.78739 10.6079C9.18686 9.82386 9.82382 9.1869 10.6078 8.78743C11.4991 8.33329 12.6668 8.33329 15.0003 8.33329H16.6666M41.6666 16.6666V14.9935C41.6666 12.6645 41.6666 11.4983 41.2129 10.6079C40.8134 9.82386 40.1743 9.1869 39.3903 8.78743C38.499 8.33329 37.3339 8.33329 35.0003 8.33329H33.3333M33.3333 4.16663V8.33329M33.3333 8.33329H16.6666M16.6666 4.16663V8.33329" stroke="#00899A" stroke-width="4" stroke-linecap="round" stroke-linejoin="round"/>
</svg>
