<svg 
  width="32" 
  height="32" 
  viewBox="0 0 32 32" 
  fill="none" 
  xmlns="http://www.w3.org/2000/svg"
>
  <path 
    d="M5.33325 10.6667H26.6666M5.33325 10.6667V22.4003C5.33325 23.8938 5.33325 24.6401 5.6239 25.2105C5.87956 25.7123 6.28722 26.1207 6.78898 26.3763C7.35885 26.6667 8.10524 26.6667 9.5958 26.6667H22.4047C23.8952 26.6667 24.6406 26.6667 25.2104 26.3763C25.7122 26.1207 26.1206 25.7123 26.3762 25.2105C26.6666 24.6407 26.6666 23.8953 26.6666 22.4048V10.6667M5.33325 10.6667V9.60028C5.33325 8.10681 5.33325 7.35951 5.6239 6.78908C5.87956 6.28732 6.28722 5.87967 6.78898 5.624C7.35941 5.33335 8.10671 5.33335 9.60018 5.33335H10.6666M26.6666 10.6667V9.5959C26.6666 8.10535 26.6666 7.35896 26.3762 6.78908C26.1206 6.28732 25.7122 5.87967 25.2104 5.624C24.64 5.33335 23.8937 5.33335 22.4002 5.33335H21.3333M10.6666 5.33335H21.3333M10.6666 5.33335V2.66669M21.3333 5.33335V2.66669M19.3333 18.6667H15.9999M15.9999 18.6667H12.6666M15.9999 18.6667V15.3334M15.9999 18.6667V22" 
    stroke="currentColor" 
    stroke-width="2" 
    stroke-linecap="round" 
    stroke-linejoin="round"
    fill="none"
  />
</svg>
