<svg 
  class="customizable-svg" 
  width="32" 
  height="32" 
  viewBox="0 0 32 32" 
  fill="var(--fill-color, none)" 
  xmlns="http://www.w3.org/2000/svg"
>
  <path 
    class="svg-path" 
    d="M5.33301 10.6666H26.6663M5.33301 10.6666V22.4002C5.33301 23.8937 5.33301 24.64 5.62366 25.2105C5.87932 25.7122 6.28697 26.1206 6.78874 26.3763C7.35861 26.6666 8.105 26.6666 9.59555 26.6666H22.4038C23.8943 26.6666 24.6397 26.6666 25.2095 26.3763C25.7113 26.1206 26.1203 25.7122 26.376 25.2105C26.6663 24.6406 26.6663 23.8953 26.6663 22.4047V10.6666M5.33301 10.6666V9.60022C5.33301 8.10675 5.33301 7.35945 5.62366 6.78902C5.87932 6.28726 6.28697 5.8796 6.78874 5.62394C7.35917 5.33329 8.10646 5.33329 9.59993 5.33329H10.6663M26.6663 10.6666V9.59584C26.6663 8.10528 26.6663 7.3589 26.376 6.78902C26.1203 6.28726 25.7113 5.8796 25.2095 5.62394C24.6391 5.33329 23.8934 5.33329 22.3999 5.33329H21.333M10.6663 5.33329H21.333M10.6663 5.33329V2.66663M21.333 5.33329V2.66663M21.333 16H10.6663" 
    stroke="var(--stroke-color, #14181F)" 
    stroke-width="var(--stroke-width, 2)" 
    stroke-linecap="round" 
    stroke-linejoin="round"
  />
</svg>
