<svg width="32" height="32" viewBox="0 0 32 32" fill="none" xmlns="http://www.w3.org/2000/svg">
  <path d="M15.9997 10.6668L5.33301 21.3334V26.6668L10.6663 26.6667L21.333 16.0001M15.9997 10.6668L19.8245 6.84191L19.8268 6.83964C20.3533 6.31313 20.617 6.04941 20.921 5.95063C21.1888 5.86362 21.4773 5.86362 21.7451 5.95063C22.0489 6.04934 22.3123 6.31276 22.8381 6.83853L25.1578 9.15826C25.6858 9.68627 25.95 9.95041 26.0489 10.2548C26.1359 10.5226 26.1359 10.8111 26.0489 11.0789C25.95 11.3831 25.6863 11.6468 25.159 12.1741L25.1578 12.1752L21.333 16.0001M15.9997 10.6668L21.333 16.0001" 
    stroke="currentColor" 
    stroke-width="var(--stroke-width, 2)" 
    stroke-linecap="round" 
    stroke-linejoin="round"/>
</svg>
