<svg width="80" height="80" viewBox="0 0 80 80" fill="none" xmlns="http://www.w3.org/2000/svg">
<path d="M46.6667 60H70M10 60H16.6667M16.6667 60C16.6667 64.6024 20.3976 68.3334 25 68.3334C29.6024 68.3334 33.3333 64.6024 33.3333 60C33.3333 55.3977 29.6024 51.6667 25 51.6667C20.3976 51.6667 16.6667 55.3977 16.6667 60ZM66.6667 40H70M10 40H33.3333M43.3333 20H70M43.3333 20C43.3333 15.3976 39.6024 11.6667 35 11.6667C30.3976 11.6667 26.6667 15.3976 26.6667 20C26.6667 24.6024 30.3976 28.3334 35 28.3334C39.6024 28.3334 43.3333 24.6024 43.3333 20ZM10 20H13.3333M55 48.3334C50.3976 48.3334 46.6667 44.6024 46.6667 40C46.6667 35.3976 50.3976 31.6667 55 31.6667C59.6024 31.6667 63.3333 35.3976 63.3333 40C63.3333 44.6024 59.6024 48.3334 55 48.3334Z" stroke="white" stroke-width="4" stroke-linecap="round" stroke-linejoin="round"/>
</svg>
