<svg width="50" height="50" viewBox="0 0 50 50" fill="none" xmlns="http://www.w3.org/2000/svg">
<path d="M41.6666 35.417V23.8588C41.6666 22.7456 41.6656 22.1887 41.5303 21.6707C41.4103 21.2116 41.2134 20.7772 40.9469 20.3847C40.6462 19.9417 40.2282 19.5744 39.3904 18.8413L29.3904 10.0913C27.8349 8.73029 27.0572 8.05013 26.182 7.79129C25.4107 7.56322 24.5887 7.56322 23.8175 7.79129C22.9429 8.04994 22.1663 8.72945 20.6132 10.0884L10.6099 18.8413C9.77209 19.5744 9.35417 19.9417 9.05347 20.3847C8.78699 20.7772 8.58856 21.2116 8.46861 21.6707C8.33325 22.1887 8.33325 22.7456 8.33325 23.8588V35.417C8.33325 37.3584 8.33325 38.3288 8.65042 39.0945C9.07331 40.1154 9.88392 40.9276 10.9049 41.3505C11.6706 41.6676 12.6413 41.6676 14.5827 41.6676C16.5241 41.6676 17.4959 41.6676 18.2616 41.3505C19.2826 40.9276 20.093 40.1156 20.5159 39.0947C20.833 38.329 20.8333 37.3582 20.8333 35.4168V33.3335C20.8333 31.0323 22.6987 29.1668 24.9999 29.1668C27.3011 29.1668 29.1666 31.0323 29.1666 33.3335V35.4168C29.1666 37.3582 29.1666 38.329 29.4838 39.0947C29.9066 40.1156 30.7173 40.9276 31.7382 41.3505C32.5039 41.6676 33.4746 41.6676 35.416 41.6676C37.3575 41.6676 38.3293 41.6676 39.095 41.3505C40.1159 40.9276 40.9263 40.1154 41.3492 39.0945C41.6664 38.3288 41.6666 37.3584 41.6666 35.417Z" stroke="#00899A" stroke-width="4" stroke-linecap="round" stroke-linejoin="round"/>
</svg>
