<svg width="32" height="32" viewBox="0 0 32 32" fill="none" xmlns="http://www.w3.org/2000/svg">
<path d="M25.7241 13.2685L22.613 9.53516C22.1427 8.97085 21.9064 8.68852 21.6182 8.48568C21.3628 8.30595 21.0775 8.1727 20.776 8.09157C20.4356 8 20.0694 8 19.3349 8H9.59993C8.10646 8 7.35917 8 6.78874 8.29065C6.28697 8.54631 5.87932 8.95396 5.62366 9.45573C5.33301 10.0262 5.33301 10.7735 5.33301 12.2669V19.7336C5.33301 21.2271 5.33301 21.9734 5.62366 22.5438C5.87932 23.0456 6.28697 23.454 6.78874 23.7096C7.35861 24 8.105 24 9.59555 24H19.3349C20.0694 24 20.4356 23.9998 20.776 23.9082C21.0775 23.8271 21.3628 23.6936 21.6182 23.5139C21.9064 23.3111 22.1427 23.0294 22.613 22.4651L25.7241 18.7318C26.5338 17.7601 26.9378 17.2741 27.0925 16.7318C27.229 16.2536 27.229 15.746 27.0925 15.2679C26.9378 14.7255 26.5338 14.2402 25.7241 13.2685Z"
 stroke="currentColor" 
 stroke-width="2" 
 stroke-linecap="round" 
 stroke-linejoin="round"/>
</svg>
