<svg 
  width="32" 
  height="32" 
  viewBox="0 0 32 32" 
  fill="none" 
  xmlns="http://www.w3.org/2000/svg"
>
  <path 
    d="M5.33333 8.00002L13.4768 14.1497L13.4796 14.152C14.3838 14.8151 14.8362 15.1468 15.3317 15.275C15.7696 15.3883 16.23 15.3883 16.668 15.275C17.1639 15.1467 17.6176 14.814 18.5234 14.1497C18.5234 14.1497 23.7468 10.1413 26.6667 8.00002M4 21.0669V10.9336C4 9.44014 4 8.69285 4.29065 8.12242C4.54631 7.62065 4.95396 7.213 5.45573 6.95734C6.02616 6.66669 6.77345 6.66669 8.26693 6.66669H23.7336C25.2271 6.66669 25.9728 6.66669 26.5432 6.95734C27.045 7.213 27.454 7.62065 27.7096 8.12242C28 8.69229 28 9.43868 28 10.9292V21.0715C28 22.562 28 23.3073 27.7096 23.8772C27.454 24.379 27.045 24.7873 26.5432 25.043C25.9733 25.3334 25.228 25.3334 23.7375 25.3334H8.26255C6.77199 25.3334 6.0256 25.3334 5.45573 25.043C4.95396 24.7873 4.54631 24.379 4.29065 23.8772C4 23.3068 4 22.5604 4 21.0669Z" 
    stroke="currentColor" 
    stroke-width="2" 
    stroke-linecap="round" 
    stroke-linejoin="round"
    fill="none"
  />
</svg>
