<svg 
  class="customizable-svg" 
  width="80" 
  height="80" 
  viewBox="0 0 80 80" 
  fill="none" 
  xmlns="http://www.w3.org/2000/svg"
>
  <path 
    d="M63.3333 63.3334L53.3333 53.3334M33.3339 66.6667H23.9897C20.2633 66.6667 18.3973 66.6667 16.9726 65.9408C15.7182 65.3016 14.699 64.2807 14.0599 63.0263C13.3333 61.6002 13.3333 59.7344 13.3333 56.0007V24.0007C13.3333 20.267 13.3333 18.3988 14.0599 16.9727C14.699 15.7183 15.7182 14.6992 16.9726 14.06C18.3987 13.3334 20.2669 13.3334 24.0006 13.3334H56.0006C59.7343 13.3334 61.5985 13.3334 63.0246 14.06C64.279 14.6992 65.3015 15.7183 65.9407 16.9727C66.6666 18.3974 66.6666 20.2634 66.6666 23.9897V33.334M44.9999 56.6667C38.5566 56.6667 33.3333 51.4434 33.3333 45C33.3333 38.5567 38.5566 33.3334 44.9999 33.3334C51.4432 33.3334 56.6666 38.5567 56.6666 45C56.6666 51.4434 51.4432 56.6667 44.9999 56.6667Z" 
    stroke="currentColor" 
    stroke-width="var(--stroke-width, 4)" 
    stroke-linecap="round" 
    stroke-linejoin="round"
  />
</svg>
