<svg width="50" height="50" viewBox="0 0 50 50" fill="none" xmlns="http://www.w3.org/2000/svg">
<path d="M16.6666 8.33337H15.0003C12.6668 8.33337 11.4991 8.33337 10.6078 8.78751C9.82382 9.18699 9.18686 9.82394 8.78739 10.608C8.33325 11.4993 8.33325 12.6669 8.33325 15.0004V35.0005C8.33325 37.334 8.33325 38.5002 8.78739 39.3915C9.18686 40.1755 9.82382 40.8135 10.6078 41.213C11.4983 41.6667 12.6645 41.6667 14.9935 41.6667H16.6666M16.6666 8.33337H35.0003C37.3339 8.33337 38.499 8.33337 39.3903 8.78751C40.1743 9.18699 40.8134 9.82394 41.2129 10.608C41.6666 11.4984 41.6666 12.6646 41.6666 14.9936V35.0075C41.6666 37.3365 41.6666 38.501 41.2129 39.3915C40.8134 40.1755 40.1743 40.8135 39.3903 41.213C38.4999 41.6667 37.3353 41.6667 35.0064 41.6667H16.6666M16.6666 8.33337V41.6667M24.9999 22.9167H33.3333M24.9999 16.6667H33.3333" stroke="#00899A" stroke-width="4" stroke-linecap="round" stroke-linejoin="round"/>
</svg>
<svg 
  class="customizable-svg" 
  width="50" 
  height="50" 
  viewBox="0 0 50 50" 
  fill="none" 
  xmlns="http://www.w3.org/2000/svg"
>
  <path 
    d="M16.6666 8.33337H15.0003C12.6668 8.33337 11.4991 8.33337 10.6078 8.78751C9.82382 9.18699 9.18686 9.82394 8.78739 10.608C8.33325 11.4993 8.33325 12.6669 8.33325 15.0004V35.0005C8.33325 37.334 8.33325 38.5002 8.78739 39.3915C9.18686 40.1755 9.82382 40.8135 10.6078 41.213C11.4983 41.6667 12.6645 41.6667 14.9935 41.6667H16.6666M16.6666 8.33337H35.0003C37.3339 8.33337 38.499 8.33337 39.3903 8.78751C40.1743 9.18699 40.8134 9.82394 41.2129 10.608C41.6666 11.4984 41.6666 12.6646 41.6666 14.9936V35.0075C41.6666 37.3365 41.6666 38.501 41.2129 39.3915C40.8134 40.1755 40.1743 40.8135 39.3903 41.213C38.4999 41.6667 37.3353 41.6667 35.0064 41.6667H16.6666M16.6666 8.33337V41.6667M24.9999 22.9167H33.3333M24.9999 16.6667H33.3333" 
    stroke="currentColor" 
    stroke-width="var(--stroke-width, 4)" 
    stroke-linecap="round" 
    stroke-linejoin="round"
  />
</svg>
