<svg width="32" height="32" viewBox="0 0 32 32" fill="none" xmlns="http://www.w3.org/2000/svg">
<path d="M10.6667 10.6667H8.26693C6.77345 10.6667 6.02616 10.6667 5.45573 10.9574C4.95396 11.213 4.54631 11.6207 4.29065 12.1224C4 12.6929 4 13.4402 4 14.9336V22.4003C4 23.8938 4 24.6401 4.29065 25.2105C4.54631 25.7123 4.95396 26.1207 5.45573 26.3763C6.0256 26.6667 6.77199 26.6667 8.26255 26.6667H23.7375C25.228 26.6667 25.9733 26.6667 26.5432 26.3763C27.045 26.1207 27.454 25.7123 27.7096 25.2105C28 24.6407 28 23.8954 28 22.4048V14.9293C28 13.4387 28 12.6923 27.7096 12.1224C27.454 11.6207 27.045 11.213 26.5432 10.9574C25.9728 10.6667 25.2271 10.6667 23.7336 10.6667H21.3333M10.6667 10.6667H21.3333M10.6667 10.6667C10.6667 7.72119 13.0545 5.33337 16 5.33337C18.9455 5.33337 21.3333 7.72119 21.3333 10.6667" stroke="#14181F" stroke-width="2" stroke-linecap="round" stroke-linejoin="round"/>
</svg>
