<svg width="50" height="50" viewBox="0 0 50 50" fill="none" xmlns="http://www.w3.org/2000/svg">
<path d="M43.75 41.6665C43.75 38.0381 40.2716 34.9513 35.4167 33.8073M31.25 41.6666C31.25 37.0643 25.6536 33.3333 18.75 33.3333C11.8464 33.3333 6.25 37.0643 6.25 41.6666M31.25 27.0833C35.8524 27.0833 39.5833 23.3523 39.5833 18.75C39.5833 14.1476 35.8524 10.4166 31.25 10.4166M18.75 27.0833C14.1476 27.0833 10.4167 23.3523 10.4167 18.75C10.4167 14.1476 14.1476 10.4166 18.75 10.4166C23.3524 10.4166 27.0833 14.1476 27.0833 18.75C27.0833 23.3523 23.3524 27.0833 18.75 27.0833Z" 
stroke="currentColor" stroke-width="4" stroke-linecap="round" stroke-linejoin="round"/>
</svg>
