<svg 
  class="customizable-svg" 
  width="80" 
  height="80" 
  viewBox="0 0 80 80" 
  fill="none" 
  xmlns="http://www.w3.org/2000/svg"
>
  <path 
    d="M57.3888 64.4409C53.1164 59.6694 46.9089 56.6667 40 56.6667C33.0911 56.6667 26.8831 59.6694 22.6107 64.4409M40 70C23.4315 70 10 56.5685 10 40C10 23.4315 23.4315 10 40 10C56.5685 10 70 23.4315 70 40C70 56.5685 56.5685 70 40 70ZM40 46.6667C34.4772 46.6667 30 42.1895 30 36.6667C30 31.1438 34.4772 26.6667 40 26.6667C45.5228 26.6667 50 31.1438 50 36.6667C50 42.1895 45.5228 46.6667 40 46.6667Z" 
    stroke="currentColor" 
    stroke-width="var(--stroke-width, 4)" 
    stroke-linecap="round" 
    stroke-linejoin="round"
  />
</svg>
