<svg width="32" height="32" viewBox="0 0 32 32" fill="none" xmlns="http://www.w3.org/2000/svg">
<path d="M22.6667 28C22.6667 24.3181 19.6819 21.3333 16 21.3333C12.3181 21.3333 9.33333 24.3181 9.33333 28M22.6667 28H23.7375C25.228 28 25.9733 28 26.5432 27.7096C27.045 27.454 27.454 27.045 27.7096 26.5432C28 25.9733 28 25.228 28 23.7375V8.26255C28 6.77199 28 6.0256 27.7096 5.45573C27.454 4.95396 27.045 4.54631 26.5432 4.29065C25.9728 4 25.2271 4 23.7336 4H8.26693C6.77345 4 6.02616 4 5.45573 4.29065C4.95396 4.54631 4.54631 4.95396 4.29065 5.45573C4 6.02616 4 6.77345 4 8.26693V23.7336C4 25.2271 4 25.9728 4.29065 26.5432C4.54631 27.045 4.95396 27.454 5.45573 27.7096C6.0256 28 6.77199 28 8.26255 28H9.33333M22.6667 28H9.33333M16 17.3333C13.7909 17.3333 12 15.5425 12 13.3333C12 11.1242 13.7909 9.33333 16 9.33333C18.2091 9.33333 20 11.1242 20 13.3333C20 15.5425 18.2091 17.3333 16 17.3333Z" stroke="#14181F" stroke-width="2" stroke-linecap="round" stroke-linejoin="round"/>
</svg>
